<?xml version="1.0" encoding="UTF-8"?>
<svg version="1.1" viewBox="0 0 919 867" width="1280" height="1280" xmlns="http://www.w3.org/2000/svg">
<path transform="translate(0)" d="m0 0h919v867h-919z" fill="#FCFCFC"/>
<path transform="translate(867,504)" d="m0 0h2l2 16 8 105-12-2-31-7h-4l-11 23-11 20-12 19-12 17-11 14-11 13-12 13-24 24-11 9-16 13-19 13-10 7-15 9-22 12-24 11-26 10-29 9-30 7-32 5-23 2h-54l-31-3-34-6-27-7-36-12-23-10-17-8-23-13-22-14-18-13-16-13-15-13-27-27-7-8-14-17-10-14-14-21-14-24-12-24-13-32-8-25-3-12h55l58 1 6 13 9 20 13 24 13 20 10 14 7 9 11 13 9 10 11 12 5 4v2l4 2 12 11 14 11 18 13 19 12 18 10 27 13 27 10 27 8 24 5 28 4 12 1h52l28-3 27-5 27-7 26-9 25-11 20-10 20-12 16-11 11-8 16-13 13-12 12-11 9-10 10-11 8-10 11-15 10-15 5-8-12-2-26-6-2-1 2-5 17-17 3-4h2l2-4 12-12 7-8 8-8 7-8h2l2-4 12-12 7-8z" fill="#F05929"/>
<path transform="translate(432,1)" d="m0 0h44l33 3 29 5 30 7 30 10 27 11 17 8 22 12 19 12 19 13 16 13 11 9 16 15 17 17h-3l-8-8-11-9-15-12-24-16-19-11-15-8-25-11-22-8-29-8-25-5-33-4h-55l-33 4-29 6-24 7-25 9-20 9-16 8-18 10-18 12-19 14-13 11-10 9-12 11-15 16-9 11-14 18-10 15-13 21-14 27-11 26-13 39h-94l4-17 10-30 11-26 15-30 12-20 8-12 10-14 11-14 11-13 12-13 22-22h2v-2l11-9 15-12 18-13 19-12 17-10 16-8 27-12 28-10 29-8 24-5 28-4z" fill="#0E74BC"/>
<path transform="translate(63,362)" d="m0 0h19l10 2 12 5 8 7h2l4-10 2-2 24 3 19 4 3 2-1 12-2 14-1 14v30l2 35v14l-4 4-14 1h-33l-2-4-2-10-4 2-10 7-11 5-9 2h-14l-15-3-16-8-10-8-11-14-6-14-2-9v-24l4-15 7-14 11-12 10-7 12-5 11-3z" fill="#000001"/>
<path transform="translate(490,93)" d="m0 0h48l29 3 26 5 26 7 28 10 24 11 24 13 15 10 14 10 11 9 13 11 8 8 7 6 7 8 11 12 13 17 7 10 13 21 12 23 10 23 3 8v3h-46l-3-1-13-29-9-16-5-9-8-12-11-15-11-13-7-8v-2l-4-2-6-7-8-7-12-11-20-15-17-11-21-12-19-9-23-9-26-8-24-5-20-3-26-2h-24l-28 2-29 5-24 6-27 9-24 11-21 11-16 10-17 12-11 9-14 12-14 14v-3l16-17 16-16 11-9 15-12 21-14 15-9 19-10 21-9 28-10 32-8 25-4z" fill="#F05929"/>
<path transform="translate(503,361)" d="m0 0h22l17 3 15 6 13 9 8 8 8 13 4 11 2 12v13l-3 15-5 12-7 10-10 10-9 6-12 5-16 4-20 1-17-2-18-6-10-6-11-9-8-10-6-13-3-13v-18l3-15 8-16 9-10 8-7 11-6 11-4z" fill="#000001"/>
<path transform="translate(714,362)" d="m0 0 18 2 11 4 8 5 8 9 3 10v102l-2 2-8 1h-32l-10-1-3-3v-47l-1-30-3-6v-2l-5-2-3-1h-11l-12 6-4 5-1 77-3 3-8 1h-31l-10-1-3-2-1-85-2-19-3-14v-5l9-2 29-4 13-2h5l2 5 2 12 16-8 13-6 10-3z" fill="#000001"/>
<path transform="translate(662,557)" d="m0 0h10l43 3 6 1-1 6-9 20-7 14-11 17-9 12-9 11-7 7-6 7-8 7-14 12-17 12-19 11-16 8-25 10-24 7-20 4-25 3h-42l-25-3-24-5-20-6-19-7-25-12-17-10-17-12-11-9-12-11-11-11h3l11 10 15 11 16 10 21 11 26 10 27 7 19 3 10 1h41l23-3 22-5 19-6 24-10 20-11 16-11 10-8 10-9 8-7 11-12 10-13 10-15 10-18z" fill="#0E74BC"/>
<path transform="translate(795,366)" d="m0 0h13l27 2h74l3 2v33l-7 8-8 7-7 7-8 7-10 9-11 9-4 4h41l21-1-4 16-6 27-3 2-37-2h-47l-21 1h-16l-1-2v-21l-1-6v-9l12-10 13-10 28-24 4-4-22-1h-33l-1-2 7-25 3-16z" fill="#000102"/>
<path transform="translate(273,307)" d="m0 0h61l1 1-1 22-2 42v122l-3 2-7 1h-37l-8-2-1-1-1-155-2-21-1-9z" fill="#000102"/>
<path transform="translate(190,307)" d="m0 0h61v14l-2 36-1 29v108l-2 2-8 1h-36l-9-2-1-2v-143l-2-27-1-15z" fill="#000001"/>
<path transform="translate(362,367)" d="m0 0 16 1h40l1 1-2 25-1 21v79l-3 2-9 1h-30l-13-2-1-7v-90l-2-22v-7z" fill="#000102"/>
<path transform="translate(385,296)" d="m0 0h10l13 3 10 6 7 8 3 7v13l-4 10-5 5-8 5-8 2-15 1-14-2-10-5-8-7-4-9v-13l4-9 4-5 12-7z" fill="#F05929"/>
<path transform="translate(76,403)" d="m0 0h12l9 3 6 4 6 7 2 5v15l-5 9-7 6-8 3h-17l-9-4-7-6-4-7-1-4v-10l4-10 8-7z" fill="#FDFDFD"/>
<path transform="translate(508,403)" d="m0 0h13l9 4 7 7 4 9v13l-4 9-4 5-8 5-3 1h-15l-10-5-6-7-3-7v-15l4-8 4-5 8-5z" fill="#FDFDFD"/>
</svg>
